<?xml version="1.0" encoding="UTF-8"?>
<svg id="Layer_1" data-name="Layer 1" xmlns="http://www.w3.org/2000/svg" viewBox="0 0 1080 1080">
  <defs>
    <style>
      .cls-1 {
        fill: #fa6044;
      }

      .cls-1, .cls-2, .cls-3 {
        fill-rule: evenodd;
      }

      .cls-2 {
        fill: #05cda9;
      }

      .cls-4 {
        fill: #1a1a18;
        font-family: CooperBlack, 'Cooper Black';
        font-size: 86.33px;
      }

      .cls-3, .cls-5 {
        fill: #1f3661;
      }
    </style>
  </defs>
  <text class="cls-4" transform="translate(394.79 346.85)"><tspan x="0" y="0">SKSSF </tspan></text>
  <path class="cls-3" d="M232.05,619.71v10.64c0,16.56,13.23,30.18,29.65,30.81v.03h17.09c16.27,0,29.58-13.31,29.58-29.58v-33.6h-45.48v-27.92h19.02c14.55,0,26.45-11.9,26.45-26.45v-7.48c0-16.43-13.44-29.87-29.87-29.87h-15.6c-16.96,0-30.84,13.88-30.84,30.84v60.89h-9.03v21.71h9.03ZM266.73,639.04c-2.12,0-3.84-1.72-3.84-3.84v-11.87c.11-2.02,1.78-3.63,3.83-3.63h16.61v8.57c0,5.92-4.85,10.77-10.77,10.77h-9.67,3.84ZM262.88,543.75v-15.66s0,3.63,0,3.63c.11-2.02,1.78-3.63,3.83-3.63h5.83c5.92,0,10.77,4.85,10.77,10.77v8.57h-16.55s-.03,0-.05,0c-2.06,0-3.75-1.63-3.83-3.68Z"/>
  <path class="cls-3" d="M403.6,536.87c.05-1.98,1.6-3.58,3.55-3.73h13.81c3.57,0,6.5,2.92,6.5,6.5v10.31c0,3.57-2.92,6.5-6.5,6.5h-17.36,3.84c-2.09,0-3.78-1.67-3.84-3.74v-15.84ZM407.16,622.24c-1.84-.18-3.29-1.65-3.45-3.5v-31.5c.16-1.9,1.71-3.41,3.63-3.51h9.74c5.32,0,9.81,3.69,11.05,8.64v21.22c-1.24,4.95-5.73,8.64-11.05,8.64h-9.92ZM459.36,587.33c.09-1.93,1.62-3.49,3.53-3.64h9.27c5.51,0,10.88,3.79,12.31,8.89v20.66h-.19v.31h30.83v-25.65c0-3.94-.73-8.11-2.05-11.6h-.15c-4.5-11.38-15.42-19.6-28.23-20.13v-.02c-.31,0-.62-.01-.93-.01h-24.39v-11.7c0-12.99-6.14-24.22-14.87-29.13-5.3-3.63-11.7-5.75-18.57-5.75h-19.81c-6.56,0-12.69,1.94-17.85,5.28-8.3,4.16-14.45,13.96-15.59,25.69v15.62h-23.7c-.43,0-.85,0-1.27.03v.02c-16.7.88-30.09,14.81-30.09,31.71v30.46c0,15.66,11.49,28.77,26.45,31.31h88.44c14.97-2.54,26.85-15.65,26.85-31.31v-31.03ZM372.68,587.34v31.27c-.11,2.02-1.79,3.61-3.83,3.61-.02,0-.03,0-.05,0h0s-2.91.01-2.91.01h-6.79c-5.44,0-10.02-3.87-11.13-8.99v-20.52c1.11-5.12,5.69-8.99,11.13-8.99h9.99c1.94.12,3.49,1.67,3.6,3.61Z"/>
  <path class="cls-3" d="M481.74,543.14h41.57c1.61,0,2.91,1.3,2.91,2.91v69.88c0,1.61-1.3,2.91-2.91,2.91h-50.3v30.83h84.04v-106.53c0-16.96-13.87-30.83-30.83-30.83h-44.48v30.83Z"/>
  <path class="cls-3" d="M607.96,623.19c-1.95-.12-3.51-1.71-3.59-3.67v-15.92c.18-1.87,1.71-3.34,3.6-3.45h16.84v11.65c0,6.26-5.12,11.38-11.38,11.38h-5.46ZM799.88,627.35c-1.76-.26-3.13-1.73-3.25-3.53v-80.68h14.54c1.86.14,3.35,1.63,3.49,3.49v72.09c-2.11,7.74-8.81,8.83-14.78,8.63h-.04s.04,0,.04,0ZM796.62,512.31v-11.21h-30.83v11.21h-12.53c-5.26,0-10.23,1.34-14.58,3.69-9.17-5.75-17.67-4.69-27.86-4.69h0c-8.86.12-17.24,4.01-22.81,10.14-5.6-5.64-13.34-9.14-21.86-9.14h-64.48v.12c-15.71,1.37-28.15,14.66-28.15,30.71v26.2h-9.03v30.83h9.03v49.51h40.58c19.65,0,35.73-16.08,35.73-35.73v-44.61h-45.48,3.81c-1.96,0-3.58-1.48-3.81-3.38v-19.14c.09-2.04,1.77-3.67,3.83-3.67h57.96v106.53h30.83v-1h.39v-101.7c.04-2.05,1.67-3.7,3.71-3.76h17.61c2.02.06,3.64,1.68,3.71,3.69v102.77h30.83v-103.49.74c0-1.98,1.52-3.61,3.46-3.79h3.17s5.9,0,5.9,0v106.53h44.37c1.66,0,3.3-.11,4.9-.34v-.06c17.16-2.58,30.44-17.48,30.44-35.33v-70.8c0-16.83-13.66-30.61-30.44-30.83h0s-.25,0-.25,0h-18.19Z"/>
  <path class="cls-3" d="M368.88,761.94c-.13,2-1.8,3.57-3.83,3.57-.02,0-.03,0-.05,0h0s-46.4,0-46.4,0c-2.06-.06-3.72-1.76-3.72-3.83v-67.46c.14-1.87,1.64-3.36,3.51-3.5h46.81c1.93.06,3.49,1.56,3.66,3.45v67.76ZM399.71,797.27v-106.53c0-16.47-13.09-30.03-29.38-30.8v-.04h-56.77v.03c-16.35.7-29.51,14.29-29.51,30.8v74.79h-24.46v-73.74h-29.63s-1.51,0-1.51,0h-43.17v.05c-16.16.9-29.11,14.41-29.11,30.78v74.66h30.83v-70.98c.06-2,1.68-3.62,3.68-3.68h34.15c1.89.08,3.43,1.55,3.61,3.42v35.83c-.09,2.04-1.77,3.67-3.83,3.67h-5.04v30.83h8.87l171.26.91Z"/>
  <path class="cls-3" d="M441.32,796.64v-102.7c0-1.61,1.3-2.91,2.91-2.91h41.69c1.61,0,2.91,1.3,2.91,2.91v102.7h30.83v-136.45h-78.35c-16.96,0-30.83,13.87-30.83,30.83v105.61h30.83Z"/>
  <path class="cls-3" d="M665.29,776.18c-1.99,0-3.63-1.52-3.82-3.47v-80.53h14.8c2.02.09,3.63,1.76,3.64,3.8v68.81c0,6.26-5.12,11.38-11.38,11.38h-7.05,3.82ZM661.47,661.36v-12.41h-30.83v12.41h-12.53c-5.26,0-10.23,1.34-14.58,3.69-4.12-2.58-8.89-4.22-14-4.6-.76-.06-1.52-.08-2.29-.08h-24.98c-.69,0-1.38.02-2.07.07-16,1.07-28.77,14.5-28.77,30.76v106.53h30.81v-102.07c.04-2.09,1.74-3.77,3.84-3.77.02,0,.03,0,.05,0h0s17.26-.01,17.26-.01h0s.03,0,.05,0c2.12,0,3.84,1.72,3.84,3.84,0,.13,0,.23,0,.35v102.65h30.83v-103.03c.13-1.86,1.6-3.34,3.45-3.51h9.08v106.53h44.37c1.66,0,3.3-.11,4.9-.34,17.36-2.41,30.83-17.4,30.83-35.39v-70.8c0-16.32-12.84-29.78-28.92-30.77v-.06h-20.34Z"/>
  <path class="cls-3" d="M889.03,792.27v.11c16.96,0,30.83-13.87,30.83-30.83v-106.53h-30.83v100.34c-.61,4.93-4.4,8.9-9.24,9.8-.33.06-.67.11-1.01.14h0s0,0,0,0c-.34.03-.69.05-1.04.05h-2.2c-.35,0-.7-.02-1.04-.05h-6.69c-2.02-.02-3.66-1.59-3.79-3.58v-79.38c-1.73-14.06-13.91-21.38-28.85-22.24v-.05h-28.6v.05c-4.93.28-9.56,1.74-13.61,4.09-4.43-2.57-9.56-4.07-15.01-4.13h0s-.37,0-.37,0h-27.13v.08c-15.97,1.11-28.69,9.5-28.69,25.74v106.53h30.74v-96.66c0-2.09,1.66-3.78,3.74-3.84h17.59c2.02.06,3.65,1.69,3.71,3.71v45.84l.04,50.95h30.55v-97.16c.24-1.84,1.79-3.28,3.68-3.34h17.89c2.01.06,3.63,1.67,3.71,3.67l-.02,3.55s.02,57.22.02,62.44c0,16.96,13.87,30.83,30.83,30.83v-.11h24.81Z"/>
  <path class="cls-3" d="M879.65,595.99v27.47c0,1.3,1.05,2.35,2.35,2.35h9.99c1.3,0,2.35-1.05,2.35-2.35v-27.47h24.9v54.72h-39.58c-13.69,0-24.9-11.2-24.9-24.89v-29.82h24.9Z"/>
  <path class="cls-2" d="M520.85,414.65c0,2.07-1.64,3.76-3.7,3.83h-13.03c-2.05-.07-3.7-1.76-3.7-3.83v-15.76c.19-1.88,1.73-3.35,3.63-3.44h5.42c6.26,0,11.38,5.12,11.38,11.38v7.47h-.03c.01.12.02.23.02.35M500.43,472.46v-23.16h45.48v-44.61c0-19.65-16.08-35.73-35.73-35.73h-40.58v49.51h-9.03v30.83h9.03v26.19c0,16.79,13.6,30.55,30.33,30.83h0s.35,0,.35,0h61.95c16.96,0,30.83-13.87,30.83-30.83v-106.53h-30.83v103.49c0,1.68-1.36,3.04-3.04,3.04h-55.71c-1.68,0-3.04-1.36-3.04-3.04Z"/>
  <path class="cls-2" d="M815.08,468.06c-.1,1.81-1.46,3.29-3.22,3.57l-.44.05h-9.93c-.7,0-1.39-.06-2.06-.19-4.87-.9-8.68-4.92-9.25-9.89-.05-.43-.08-.86-.08-1.31v-67.35h.08v-.75c0-16.96-13.87-30.83-30.83-30.83h-11.77c-8.61,0-16.42,3.57-22.03,9.31-5.61-5.74-13.42-9.31-22.03-9.31h-62.98v.02c-16.41.63-29.64,14.25-29.64,30.81v26.2h-9.03v30.83h9.03v49.51h40.58c19.65,0,35.73-16.08,35.73-35.73v-44.61h-45.48v-23.16c0-1.68,1.36-3.04,3.04-3.04h55.71c1.68,0,3.04,1.36,3.04,3.04v105.87h30.83v-95.83h0s0,0,0,0h0s.03-.17.03-.17v-9.32c.13-2,1.79-3.59,3.83-3.6h17.4c2.07.05,3.74,1.75,3.74,3.83v71.87c0,16.96,13.87,30.83,30.83,30.83v-.11h24.81v.11h30.83v-137.37h-30.83v31.59h.09v75.12ZM645.3,449.21h13.41c1.82.17,3.27,1.61,3.46,3.43v8.23c0,6.26-5.12,11.38-11.38,11.38h-5.46c-1.97-.12-3.54-1.74-3.59-3.73v-15.73c.12-1.91,1.65-3.45,3.57-3.58Z"/>
  <path class="cls-2" d="M364.49,395.8c.12-2.01,1.79-3.6,3.83-3.61h6.65c1.68,0,3.04,1.36,3.04,3.04v64.95h30.83v-67.99c0-16.83-13.66-30.61-30.44-30.83h0s-.23,0-.23,0h-44.13s0,0,0,0h-62.19c-16.96,0-30.83,13.87-30.83,30.83v106.53h30.83v-106.53,3.04c0-1.68,1.36-3.04,3.04-3.04h9.48v106.53h44.37c1.66,0,3.29-.11,4.9-.34,17.36-2.4,30.83-17.4,30.83-35.39v-67.19ZM333.65,422.41v42.39c0,6.26-5.12,11.38-11.38,11.38h-3.42c-1.99-.11-3.57-1.73-3.62-3.73v-76.88c.22-1.91,1.84-3.38,3.81-3.38h11.21c1.91.22,3.4,1.84,3.4,3.81,0,.12,0,.24-.02.35h.03v26.05Z"/>
  <path class="cls-2" d="M450.53,361.36h-30.83v106.53h-37.3v30.83h74.47v-30.83h-6.34v-106.53Z"/>
  <path class="cls-1" d="M893.93,506.25c16.51,0,29.89,13.38,29.89,29.88s-13.38,29.89-29.89,29.89-29.88-13.38-29.88-29.89,13.38-29.88,29.88-29.88"/>
  <path class="cls-2" d="M201.68,626.79c12.9,0,23.36,10.46,23.36,23.36s-10.46,23.36-23.36,23.36-23.36-10.46-23.36-23.36,10.46-23.36,23.36-23.36"/>
  <rect class="cls-5" x="284.06" y="763.01" width="30.5" height="42.53"/>
</svg>