<?xml version="1.0" encoding="UTF-8"?>
<svg id="Layer_1" xmlns="http://www.w3.org/2000/svg" version="1.1" viewBox="0 0 1080 1080">
  <!-- Generator: Adobe Illustrator 30.0.0, SVG Export Plug-In . SVG Version: 2.1.1 Build 123)  -->
  <defs>
    <style>
      .st0 {
        fill: #fa6044;
      }

      .st0, .st1, .st2 {
        fill-rule: evenodd;
      }

      .st1 {
        fill: #05cda9;
      }

      .st3 {
        fill: #1a1a18;
      }

      .st4 {
        isolation: isolate;
      }

      .st2, .st5 {
        fill: #1f3661;
      }
    </style>
  </defs>
  <g class="st4">
    <path class="st3" d="M421.94,288.13c2.89,0,6.69.72,11.38,2.15.56.17,1.01.25,1.35.25.28,0,1.12-.25,2.53-.76.45-.17.93-.25,1.43-.25,1.88,0,3.87,1.49,5.96,4.47,2.09,2.98,3.14,5.82,3.14,8.51,0,1.57-.47,2.9-1.41,3.98-.94,1.08-2.09,1.62-3.44,1.62-1.12,0-2.04-.22-2.74-.67-.7-.45-2.25-1.78-4.64-4-3.37-3.15-6.69-4.72-9.95-4.72-1.57,0-2.83.38-3.77,1.14-.94.76-1.41,1.76-1.41,2.99,0,2.44,2.15,4.29,6.45,5.52,5.82,1.71,9.54,2.97,11.17,3.75,7.17,3.49,10.75,8.61,10.75,15.39,0,5.99-2.44,10.88-7.33,14.67-5,3.88-11.54,5.82-19.6,5.82-3.6,0-7.39-.43-11.38-1.29-3.99-.86-6.87-1.86-8.64-3.01-1.35-.9-2.56-2.86-3.65-5.88-1.08-3.02-1.62-5.96-1.62-8.83,0-1.38.28-2.42.84-3.12.7-.9,1.59-1.35,2.66-1.35s2.09.55,3.08,1.64c.59.62,1.98,2.6,4.17,5.94,1.04,1.57,2.69,2.88,4.95,3.92s4.6,1.56,7.02,1.56c2.08,0,3.77-.39,5.06-1.16,1.29-.77,1.94-1.76,1.94-2.97,0-1.12-.51-2.09-1.52-2.91-1.01-.81-2.66-1.57-4.93-2.28-4.02-1.26-7.08-2.42-9.19-3.48-2.11-1.05-4.08-2.38-5.9-3.98-4.44-3.93-6.66-8.4-6.66-13.4,0-2.47.58-4.88,1.73-7.23,1.15-2.35,2.78-4.38,4.89-6.09,4.72-3.96,10.48-5.94,17.28-5.94Z"/>
    <path class="st3" d="M500.89,300.82l-4.51,4.34c-1.66,1.57-2.49,3.01-2.49,4.3,0,.7.19,1.41.57,2.11.38.7,1.09,1.66,2.13,2.87l15.77,18.25c1.41,1.63,2.37,2.66,2.91,3.1.53.44,1.33.89,2.4,1.37,1.52.65,2.59,1.36,3.22,2.15.63.79.95,1.81.95,3.08,0,2.98-2.12,4.47-6.37,4.47h-15.98c-1.1,0-1.96-.24-2.59-.72-.63-.48-1.64-1.66-3.01-3.54-2.19-3.01-5.09-6.46-8.68-10.37-1.57-1.69-2.68-2.79-3.31-3.31-.63-.52-1.22-.78-1.75-.78-1.63,0-2.44,1.53-2.44,4.59,0,2.5.53,4.23,1.6,5.18.2.14.65.45,1.35.93,1.52.98,2.28,2.21,2.28,3.67,0,1.85-1.24,3.18-3.71,3.98-2.47.8-6.63,1.2-12.48,1.2-5.2,0-8.99-.31-11.38-.93-1.01-.28-1.83-.79-2.47-1.54-.63-.74-.95-1.58-.95-2.51,0-1.49.84-2.77,2.53-3.84.76-.51,1.3-1.06,1.62-1.67.32-.6.62-1.62.91-3.06.56-3.17.84-8.06.84-14.67,0-7.87-.3-13.45-.89-16.74-.23-1.35-.53-2.32-.93-2.91-.39-.59-1.08-1.17-2.07-1.73-1.57-.9-2.36-2.15-2.36-3.75,0-1.35.49-2.43,1.48-3.25.98-.81,2.56-1.43,4.72-1.85,2.87-.56,6.46-.84,10.79-.84s7.69.42,9.82,1.26c1.91.79,2.87,2.19,2.87,4.22,0,.84-.15,1.5-.44,1.96-.3.46-1.06,1.19-2.3,2.17-.45.39-.86,1.33-1.24,2.82-.38,1.49-.57,2.95-.57,4.38,0,2.36.53,3.54,1.6,3.54.65,0,1.27-.28,1.88-.84.6-.56,1.82-1.97,3.65-4.22,2.11-2.61,3.16-4.4,3.16-5.35,0-.51-.27-1.26-.8-2.28-.37-.7-.55-1.35-.55-1.94,0-2.08,1.12-3.55,3.37-4.41,2.25-.86,6.08-1.29,11.51-1.29,4.33,0,7.53.28,9.61.84,2.56.7,3.84,2.19,3.84,4.47,0,.9-.27,1.74-.8,2.51-.53.77-1.19,1.27-1.98,1.5-.59.2-1.95.31-4.09.34-1.49.03-2.61.2-3.35.53s-1.71,1.05-2.89,2.17Z"/>
    <path class="st3" d="M548.94,288.13c2.89,0,6.69.72,11.38,2.15.56.17,1.01.25,1.35.25.28,0,1.12-.25,2.53-.76.45-.17.93-.25,1.43-.25,1.88,0,3.87,1.49,5.96,4.47,2.09,2.98,3.14,5.82,3.14,8.51,0,1.57-.47,2.9-1.41,3.98-.94,1.08-2.09,1.62-3.44,1.62-1.12,0-2.04-.22-2.74-.67s-2.25-1.78-4.64-4c-3.37-3.15-6.69-4.72-9.95-4.72-1.57,0-2.83.38-3.77,1.14-.94.76-1.41,1.76-1.41,2.99,0,2.44,2.15,4.29,6.45,5.52,5.82,1.71,9.54,2.97,11.17,3.75,7.17,3.49,10.75,8.61,10.75,15.39,0,5.99-2.45,10.88-7.33,14.67-5,3.88-11.54,5.82-19.6,5.82-3.6,0-7.39-.43-11.38-1.29-3.99-.86-6.87-1.86-8.64-3.01-1.35-.9-2.56-2.86-3.65-5.88-1.08-3.02-1.62-5.96-1.62-8.83,0-1.38.28-2.42.84-3.12.7-.9,1.59-1.35,2.66-1.35s2.09.55,3.08,1.64c.59.62,1.98,2.6,4.17,5.94,1.04,1.57,2.69,2.88,4.95,3.92s4.6,1.56,7.02,1.56c2.08,0,3.77-.39,5.06-1.16s1.94-1.76,1.94-2.97c0-1.12-.51-2.09-1.52-2.91-1.01-.81-2.66-1.57-4.93-2.28-4.02-1.26-7.08-2.42-9.19-3.48-2.11-1.05-4.08-2.38-5.9-3.98-4.44-3.93-6.66-8.4-6.66-13.4,0-2.47.58-4.88,1.73-7.23,1.15-2.35,2.78-4.38,4.89-6.09,4.72-3.96,10.48-5.94,17.28-5.94Z"/>
    <path class="st3" d="M604.63,288.13c2.89,0,6.69.72,11.38,2.15.56.17,1.01.25,1.35.25.28,0,1.12-.25,2.53-.76.45-.17.93-.25,1.43-.25,1.88,0,3.87,1.49,5.96,4.47,2.09,2.98,3.14,5.82,3.14,8.51,0,1.57-.47,2.9-1.41,3.98-.94,1.08-2.09,1.62-3.44,1.62-1.12,0-2.04-.22-2.74-.67s-2.25-1.78-4.64-4c-3.37-3.15-6.69-4.72-9.95-4.72-1.57,0-2.83.38-3.77,1.14-.94.76-1.41,1.76-1.41,2.99,0,2.44,2.15,4.29,6.45,5.52,5.82,1.71,9.54,2.97,11.17,3.75,7.17,3.49,10.75,8.61,10.75,15.39,0,5.99-2.45,10.88-7.33,14.67-5,3.88-11.54,5.82-19.6,5.82-3.6,0-7.39-.43-11.38-1.29-3.99-.86-6.87-1.86-8.64-3.01-1.35-.9-2.56-2.86-3.65-5.88-1.08-3.02-1.62-5.96-1.62-8.83,0-1.38.28-2.42.84-3.12.7-.9,1.59-1.35,2.66-1.35s2.09.55,3.08,1.64c.59.62,1.98,2.6,4.17,5.94,1.04,1.57,2.69,2.88,4.95,3.92,2.26,1.04,4.6,1.56,7.02,1.56,2.08,0,3.77-.39,5.06-1.16s1.94-1.76,1.94-2.97c0-1.12-.51-2.09-1.52-2.91-1.01-.81-2.66-1.57-4.93-2.28-4.02-1.26-7.08-2.42-9.19-3.48-2.11-1.05-4.08-2.38-5.9-3.98-4.44-3.93-6.66-8.4-6.66-13.4,0-2.47.58-4.88,1.73-7.23s2.78-4.38,4.89-6.09c4.72-3.96,10.48-5.94,17.28-5.94Z"/>
    <path class="st3" d="M665.75,297.99c-1.94,0-3.13.49-3.58,1.48-.34.73-.65,2.16-.95,4.3-.29,2.14-.44,4.08-.44,5.82,0,1.04.34,1.76,1.01,2.15.67.39,1.94.59,3.79.59,1.24,0,2.15-.22,2.74-.67.59-.45,1-1.21,1.22-2.28.65-3.06,1.97-4.59,3.96-4.59,3.43,0,5.14,4.1,5.14,12.31,0,5.2-.75,9.02-2.23,11.46-.9,1.49-2.14,2.23-3.71,2.23-1.66,0-2.61-1.11-2.87-3.33-.14-1.43-.32-2.44-.53-3.04-.21-.59-.61-1.15-1.2-1.69-.93-.87-2.28-1.31-4.05-1.31-1.26,0-2.12.22-2.57.67s-.65,1.31-.59,2.57c0,.23-.01,1.53-.04,3.92,0,4.86.51,7.83,1.52,8.89.34.42.68.7,1.03.82.35.13,1.27.3,2.76.53.73.11,1.35.49,1.85,1.14s.76,1.39.76,2.23c0,2.16-1.26,3.56-3.79,4.17-3.65.87-8.78,1.31-15.39,1.31-5.79,0-9.78-.34-11.97-1.01-.98-.31-1.79-.87-2.4-1.69-.62-.82-.93-1.71-.93-2.7,0-1.24.45-2.23,1.35-2.99.22-.17,1-.52,2.32-1.05,1.57-.62,2.51-2.05,2.82-4.3.51-3.46.76-11.34.76-23.65,0-5.31-.18-8.75-.55-10.33-.37-1.57-1.25-2.67-2.66-3.29s-2.33-1.16-2.76-1.62c-.44-.46-.65-1.13-.65-2,0-1.24.6-2.27,1.81-3.1,1.21-.83,2.7-1.24,4.47-1.24,1.12,0,2.77.08,4.93.25,4.58.37,10.06.55,16.44.55,10.2,0,17.07-.28,20.61-.84.48-.06.84-.08,1.1-.08.98,0,1.92.56,2.82,1.69,2.47,3.15,3.71,6.63,3.71,10.45,0,1.74-.41,3.13-1.22,4.17-.82,1.04-1.88,1.56-3.2,1.56-.98,0-1.73-.2-2.23-.59s-1.8-1.77-3.88-4.13c-1.26-1.46-2.79-2.42-4.57-2.87-1.79-.45-5.11-.74-9.97-.88Z"/>
  </g>
  <path class="st2" d="M232.05,619.71v10.64c0,16.56,13.23,30.18,29.65,30.81v.03h17.09c16.27,0,29.58-13.31,29.58-29.58v-33.6h-45.48v-27.92h19.02c14.55,0,26.45-11.9,26.45-26.45v-7.48c0-16.43-13.44-29.87-29.87-29.87h-15.6c-16.96,0-30.84,13.88-30.84,30.84v60.89h-9.03v21.71h9.03v-.02ZM266.73,639.04c-2.12,0-3.84-1.72-3.84-3.84v-11.87c.11-2.02,1.78-3.63,3.83-3.63h16.61v8.57c0,5.92-4.85,10.77-10.77,10.77h-9.67,3.84ZM262.88,543.75v-15.66,3.63c.11-2.02,1.78-3.63,3.83-3.63h5.83c5.92,0,10.77,4.85,10.77,10.77v8.57h-16.6c-2.06,0-3.75-1.63-3.83-3.68h0Z"/>
  <path class="st2" d="M403.6,536.87c.05-1.98,1.6-3.58,3.55-3.73h13.81c3.57,0,6.5,2.92,6.5,6.5v10.31c0,3.57-2.92,6.5-6.5,6.5h-17.36,3.84c-2.09,0-3.78-1.67-3.84-3.74v-15.84h0ZM407.16,622.24c-1.84-.18-3.29-1.65-3.45-3.5v-31.5c.16-1.9,1.71-3.41,3.63-3.51h9.74c5.32,0,9.81,3.69,11.05,8.64v21.22c-1.24,4.95-5.73,8.64-11.05,8.64h-9.92,0ZM459.36,587.33c.09-1.93,1.62-3.49,3.53-3.64h9.27c5.51,0,10.88,3.79,12.31,8.89v20.66h-.19v.31h30.83v-25.65c0-3.94-.73-8.11-2.05-11.6h-.15c-4.5-11.38-15.42-19.6-28.23-20.13v-.02c-.31,0-.62-.01-.93-.01h-24.39v-11.7c0-12.99-6.14-24.22-14.87-29.13-5.3-3.63-11.7-5.75-18.57-5.75h-19.81c-6.56,0-12.69,1.94-17.85,5.28-8.3,4.16-14.45,13.96-15.59,25.69v15.62h-23.7c-.43,0-.85,0-1.27.03v.02c-16.7.88-30.09,14.81-30.09,31.71v30.46c0,15.66,11.49,28.77,26.45,31.31h88.44c14.97-2.54,26.85-15.65,26.85-31.31v-31.03h0ZM372.68,587.34v31.27c-.11,2.02-1.79,3.61-3.83,3.61h-2.96s-6.79.01-6.79.01c-5.44,0-10.02-3.87-11.13-8.99v-20.52c1.11-5.12,5.69-8.99,11.13-8.99h9.99c1.94.12,3.49,1.67,3.6,3.61h-.01Z"/>
  <path class="st2" d="M481.74,543.14h41.57c1.61,0,2.91,1.3,2.91,2.91v69.88c0,1.61-1.3,2.91-2.91,2.91h-50.3v30.83h84.04v-106.53c0-16.96-13.87-30.83-30.83-30.83h-44.48v30.83h0Z"/>
  <path class="st2" d="M607.96,623.19c-1.95-.12-3.51-1.71-3.59-3.67v-15.92c.18-1.87,1.71-3.34,3.6-3.45h16.84v11.65c0,6.26-5.12,11.38-11.38,11.38h-5.47ZM799.88,627.35c-1.76-.26-3.13-1.73-3.25-3.53v-80.68h14.54c1.86.14,3.35,1.63,3.49,3.49v72.09c-2.11,7.74-8.81,8.83-14.78,8.63h-.04.04ZM796.62,512.31v-11.21h-30.83v11.21h-12.53c-5.26,0-10.23,1.34-14.58,3.69-9.17-5.75-17.67-4.69-27.86-4.69h0c-8.86.12-17.24,4.01-22.81,10.14-5.6-5.64-13.34-9.14-21.86-9.14h-64.48v.12c-15.71,1.37-28.15,14.66-28.15,30.71v26.2h-9.03v30.83h9.03v49.51h40.58c19.65,0,35.73-16.08,35.73-35.73v-44.61h-45.48,3.81c-1.96,0-3.58-1.48-3.81-3.38v-19.14c.09-2.04,1.77-3.67,3.83-3.67h57.96v106.53h30.83v-1h.39v-101.7c.04-2.05,1.67-3.7,3.71-3.76h17.61c2.02.06,3.64,1.68,3.71,3.69v102.77h30.83v-103.49.74c0-1.98,1.52-3.61,3.46-3.79h9.07v106.53h44.37c1.66,0,3.3-.11,4.9-.34v-.06c17.16-2.58,30.44-17.48,30.44-35.33v-70.8c0-16.83-13.66-30.61-30.44-30.83h-18.44.04Z"/>
  <path class="st2" d="M368.88,761.94c-.13,2-1.8,3.57-3.83,3.57h-46.45c-2.06-.06-3.72-1.76-3.72-3.83v-67.46c.14-1.87,1.64-3.36,3.51-3.5h46.81c1.93.06,3.49,1.56,3.66,3.45v67.76h.02ZM399.71,797.27v-106.53c0-16.47-13.09-30.03-29.38-30.8v-.04h-56.77v.03c-16.35.7-29.51,14.29-29.51,30.8v74.79h-24.46v-73.74h-74.31v.05c-16.16.9-29.11,14.41-29.11,30.78v74.66h30.83v-70.98c.06-2,1.68-3.62,3.68-3.68h34.15c1.89.08,3.43,1.55,3.61,3.42v35.83c-.09,2.04-1.77,3.67-3.83,3.67h-5.04v30.83h8.87l171.26.91h.01Z"/>
  <path class="st2" d="M441.32,796.64v-102.7c0-1.61,1.3-2.91,2.91-2.91h41.69c1.61,0,2.91,1.3,2.91,2.91v102.7h30.83v-136.45h-78.35c-16.96,0-30.83,13.87-30.83,30.83v105.61h30.84Z"/>
  <path class="st2" d="M665.29,776.18c-1.99,0-3.63-1.52-3.82-3.47v-80.53h14.8c2.02.09,3.63,1.76,3.64,3.8v68.81c0,6.26-5.12,11.38-11.38,11.38h-7.05,3.82-.01ZM661.47,661.36v-12.41h-30.83v12.41h-12.53c-5.26,0-10.23,1.34-14.58,3.69-4.12-2.58-8.89-4.22-14-4.6-.76-.06-1.52-.08-2.29-.08h-24.98c-.69,0-1.38.02-2.07.07-16,1.07-28.77,14.5-28.77,30.76v106.53h30.81v-102.07c.04-2.09,1.74-3.77,3.84-3.77h17.31s.03-.01.05-.01c2.12,0,3.84,1.72,3.84,3.84v103h30.83v-103.03c.13-1.86,1.6-3.34,3.45-3.51h9.08v106.53h44.37c1.66,0,3.3-.11,4.9-.34,17.36-2.41,30.83-17.4,30.83-35.39v-70.8c0-16.32-12.84-29.78-28.92-30.77v-.06h-20.34Z"/>
  <path class="st2" d="M889.03,792.27v.11c16.96,0,30.83-13.87,30.83-30.83v-106.53h-30.83v100.34c-.61,4.93-4.4,8.9-9.24,9.8-.33.06-.67.11-1.01.14h0c-.34.03-.69.05-1.04.05h-2.2c-.35,0-.7-.02-1.04-.05h-6.69c-2.02-.02-3.66-1.59-3.79-3.58v-79.38c-1.73-14.06-13.91-21.38-28.85-22.24v-.05h-28.6v.05c-4.93.28-9.56,1.74-13.61,4.09-4.43-2.57-9.56-4.07-15.01-4.13h-27.5v.08c-15.97,1.11-28.69,9.5-28.69,25.74v106.53h30.74v-96.66c0-2.09,1.66-3.78,3.74-3.84h17.59c2.02.06,3.65,1.69,3.71,3.71v45.84l.04,50.95h30.55v-97.16c.24-1.84,1.79-3.28,3.68-3.34h17.89c2.01.06,3.63,1.67,3.71,3.67l-.02,3.55s.02,57.22.02,62.44c0,16.96,13.87,30.83,30.83,30.83v-.11h24.81l-.02-.02Z"/>
  <path class="st2" d="M879.65,595.99v27.47c0,1.3,1.05,2.35,2.35,2.35h9.99c1.3,0,2.35-1.05,2.35-2.35v-27.47h24.9v54.72h-39.58c-13.69,0-24.9-11.2-24.9-24.89v-29.82h24.9,0Z"/>
  <path class="st1" d="M520.85,414.65c0,2.07-1.64,3.76-3.7,3.83h-13.03c-2.05-.07-3.7-1.76-3.7-3.83v-15.76c.19-1.88,1.73-3.35,3.63-3.44h5.42c6.26,0,11.38,5.12,11.38,11.38v7.47h-.03c.01.12.02.23.02.35M500.43,472.46v-23.16h45.48v-44.61c0-19.65-16.08-35.73-35.73-35.73h-40.58v49.51h-9.03v30.83h9.03v26.19c0,16.79,13.6,30.55,30.33,30.83h62.3c16.96,0,30.83-13.87,30.83-30.83v-106.53h-30.83v103.49c0,1.68-1.36,3.04-3.04,3.04h-55.71c-1.68,0-3.04-1.36-3.04-3.04h-.01Z"/>
  <path class="st1" d="M815.08,468.06c-.1,1.81-1.46,3.29-3.22,3.57l-.44.05h-9.93c-.7,0-1.39-.06-2.06-.19-4.87-.9-8.68-4.92-9.25-9.89-.05-.43-.08-.86-.08-1.31v-67.35h.08v-.75c0-16.96-13.87-30.83-30.83-30.83h-11.77c-8.61,0-16.42,3.57-22.03,9.31-5.61-5.74-13.42-9.31-22.03-9.31h-62.98v.02c-16.41.63-29.64,14.25-29.64,30.81v26.2h-9.03v30.83h9.03v49.51h40.58c19.65,0,35.73-16.08,35.73-35.73v-44.61h-45.48v-23.16c0-1.68,1.36-3.04,3.04-3.04h55.71c1.68,0,3.04,1.36,3.04,3.04v105.87h30.83v-95.83h0l.03-.17v-9.32c.13-2,1.79-3.59,3.83-3.6h17.4c2.07.05,3.74,1.75,3.74,3.83v71.87c0,16.96,13.87,30.83,30.83,30.83v-.11h24.81v.11h30.83v-137.37h-30.83v31.59h.09v75.12h0ZM645.3,449.21h13.41c1.82.17,3.27,1.61,3.46,3.43v8.23c0,6.26-5.12,11.38-11.38,11.38h-5.46c-1.97-.12-3.54-1.74-3.59-3.73v-15.73c.12-1.91,1.65-3.45,3.57-3.58h0Z"/>
  <path class="st1" d="M364.49,395.8c.12-2.01,1.79-3.6,3.83-3.61h6.65c1.68,0,3.04,1.36,3.04,3.04v64.95h30.83v-67.99c0-16.83-13.66-30.61-30.44-30.83h-106.55c-16.96,0-30.83,13.87-30.83,30.83v106.53h30.83v-106.53,3.04c0-1.68,1.36-3.04,3.04-3.04h9.48v106.53h44.37c1.66,0,3.29-.11,4.9-.34,17.36-2.4,30.83-17.4,30.83-35.39v-67.19h.02ZM333.65,422.41v42.39c0,6.26-5.12,11.38-11.38,11.38h-3.42c-1.99-.11-3.57-1.73-3.62-3.73v-76.88c.22-1.91,1.84-3.38,3.81-3.38h11.21c1.91.22,3.4,1.84,3.4,3.81,0,.12,0,.24-.02.35h.03v26.05h0Z"/>
  <path class="st1" d="M450.53,361.36h-30.83v106.53h-37.3v30.83h74.47v-30.83h-6.34v-106.53h0Z"/>
  <path class="st0" d="M893.93,506.25c16.51,0,29.89,13.38,29.89,29.88s-13.38,29.89-29.89,29.89-29.88-13.38-29.88-29.89,13.38-29.88,29.88-29.88"/>
  <path class="st1" d="M201.68,626.79c12.9,0,23.36,10.46,23.36,23.36s-10.46,23.36-23.36,23.36-23.36-10.46-23.36-23.36,10.46-23.36,23.36-23.36"/>
  <rect class="st5" x="284.06" y="763.01" width="30.5" height="42.53"/>
</svg>